<svg width="878" height="231" viewBox="0 0 878 231" fill="none" xmlns="http://www.w3.org/2000/svg">
<path fill-rule="evenodd" clip-rule="evenodd" d="M160.675 0V93.44H227.619V77.696H178.979V0H160.675ZM237.707 0V16.256H255.627V0H237.707ZM237.707 27.776V93.44H255.627V27.776H237.707ZM270.471 93.44V26.88H286.855L287.111 34.688H287.367C289.842 31.7013 292.658 29.44 295.815 27.904C299.058 26.368 302.855 25.6 307.207 25.6C311.474 25.6 315.101 26.368 318.087 27.904C321.074 29.44 323.207 31.7013 324.487 34.688H324.743C327.389 31.5307 330.375 29.2267 333.703 27.776C337.031 26.3253 340.914 25.6 345.351 25.6C352.434 25.6 357.554 27.4773 360.711 31.232C363.954 34.9867 365.575 40.9173 365.575 49.024V93.44H365.334V110.19H365.394V201.44H347.894V110.19H348.334V83.44H348.423V53.376C348.423 48.768 347.698 45.3973 346.247 43.264C344.797 41.1307 342.45 40.064 339.207 40.064C335.367 40.064 332.338 41.3867 330.119 44.032C327.901 46.592 326.791 50.0053 326.791 54.272V93.44H309.511V52.48C309.511 48.384 308.701 45.312 307.079 43.264C305.543 41.1307 303.239 40.064 300.167 40.064C297.863 40.064 295.773 40.704 293.895 41.984C292.018 43.1787 290.525 44.8427 289.415 46.976C288.306 49.1093 287.751 51.5413 287.751 54.272V93.44H270.471ZM378.652 0V16.256H396.572V0H378.652ZM378.652 27.776V93.44H396.572V27.776H378.652ZM441.752 94.72C433.731 94.72 427.928 93.0987 424.344 89.856C420.846 86.6133 419.096 81.28 419.096 73.856V40.576H404.632V26.88H419.096V5.12H436.76V26.88H458.392V40.576H436.76V69.504C436.76 73.5147 437.4 76.3307 438.68 77.952C439.96 79.488 442.264 80.256 445.592 80.256C447.384 80.256 449.262 80.0853 451.224 79.744C453.272 79.4027 455.15 78.9333 456.856 78.336L458.264 92.288C455.363 93.1413 452.59 93.7387 449.944 94.08C447.299 94.5067 444.568 94.72 441.752 94.72ZM470.472 0V83.44H470.334V105.81H470.141V141.311H469.879C467.172 138.167 464.028 135.853 460.447 134.368C456.954 132.796 452.98 132.01 448.526 132.01C439.444 132.01 432.413 135.11 427.435 141.311C422.457 147.512 419.968 156.201 419.968 167.38C419.968 178.559 422.457 187.248 427.435 193.449C432.413 199.65 439.444 202.75 448.526 202.75C452.98 202.75 457.085 201.964 460.84 200.392C464.596 198.82 467.827 196.506 470.534 193.449H470.796L471.058 201.44H488.088V110.44H488.334V93.44H488.392V0H470.472ZM536.132 94.72C524.186 94.72 514.97 91.7333 508.484 85.76C502.084 79.7867 498.884 71.2533 498.884 60.16C498.884 49.408 501.828 40.96 507.716 34.816C513.604 28.672 521.711 25.6 532.036 25.6C542.02 25.6 549.701 28.5013 555.076 34.304C560.538 40.1067 563.268 48.3413 563.268 59.008C563.268 60.2027 563.226 61.568 563.14 63.104C563.14 64.64 563.098 65.792 563.012 66.56H516.305C516.755 71.0553 518.286 74.4687 520.9 76.8C524.058 79.616 528.879 81.024 535.364 81.024C539.034 81.024 542.916 80.6827 547.012 80C551.108 79.3173 554.735 78.3787 557.892 77.184L559.94 90.624C556.783 91.904 553.071 92.8853 548.804 93.568C544.623 94.336 540.399 94.72 536.132 94.72ZM520.132 43.52C518.061 46.1262 516.8 49.7529 516.351 54.4H546.742C546.353 49.584 545.163 45.872 543.172 43.264C540.783 40.0213 537.071 38.4 532.036 38.4C526.746 38.4 522.778 40.1067 520.132 43.52ZM586.342 94.08C589.756 94.5067 592.956 94.72 595.942 94.72C601.745 94.72 606.737 93.9093 610.918 92.288C615.185 90.6667 618.47 88.3627 620.774 85.376C623.078 82.304 624.23 78.72 624.23 74.624C624.23 71.6373 623.59 68.992 622.31 66.688C621.116 64.384 619.366 62.3787 617.062 60.672C614.758 58.88 611.985 57.344 608.742 56.064C605.5 54.784 601.873 53.6747 597.862 52.736C594.79 52.0533 592.401 51.3707 590.694 50.688C588.988 50.0053 587.793 49.2373 587.11 48.384C586.428 47.5307 586.086 46.5067 586.086 45.312C586.086 43.264 587.11 41.7707 589.158 40.832C591.206 39.808 594.364 39.296 598.63 39.296C601.958 39.296 605.372 39.5947 608.87 40.192C612.369 40.7893 615.996 41.728 619.75 43.008L621.926 29.568C618.001 28.288 613.777 27.3067 609.254 26.624C604.817 25.9413 600.508 25.6 596.326 25.6C587.196 25.6 580.241 27.2213 575.462 30.464C570.684 33.7067 568.294 38.4853 568.294 44.8C568.294 48.7253 569.318 52.0533 571.366 54.784C573.414 57.5147 576.358 59.8187 580.198 61.696C584.124 63.488 588.817 65.0667 594.278 66.432C597.436 67.1147 599.868 67.84 601.574 68.608C603.366 69.2907 604.604 70.0587 605.286 70.912C605.969 71.7653 606.31 72.8747 606.31 74.24C606.31 76.544 605.329 78.2507 603.366 79.36C601.404 80.4693 598.289 81.024 594.022 81.024C590.268 81.024 586.47 80.64 582.63 79.872C578.876 79.104 574.95 77.9947 570.854 76.544L568.678 89.984C570.982 90.9227 573.67 91.776 576.742 92.544C579.814 93.2267 583.014 93.7387 586.342 94.08ZM656.102 94.72C653.116 94.72 649.916 94.5067 646.502 94.08C643.174 93.7387 639.974 93.2267 636.902 92.544C633.83 91.776 631.142 90.9227 628.838 89.984L631.014 76.544C635.11 77.9947 639.036 79.104 642.79 79.872C646.63 80.64 650.428 81.024 654.182 81.024C658.449 81.024 661.564 80.4693 663.526 79.36C665.489 78.2507 666.47 76.544 666.47 74.24C666.47 72.8747 666.129 71.7653 665.446 70.912C664.764 70.0587 663.526 69.2907 661.734 68.608C660.028 67.84 657.596 67.1147 654.438 66.432C648.977 65.0667 644.284 63.488 640.358 61.696C636.518 59.8187 633.574 57.5147 631.526 54.784C629.478 52.0533 628.454 48.7253 628.454 44.8C628.454 38.4853 630.844 33.7067 635.622 30.464C640.401 27.2213 647.356 25.6 656.486 25.6C660.668 25.6 664.977 25.9413 669.414 26.624C673.937 27.3067 678.161 28.288 682.086 29.568L679.91 43.008C676.156 41.728 672.529 40.7893 669.03 40.192C665.532 39.5947 662.118 39.296 658.79 39.296C654.524 39.296 651.366 39.808 649.318 40.832C647.271 41.7707 646.246 43.264 646.246 45.312C646.246 46.5067 646.588 47.5307 647.27 48.384C647.953 49.2373 649.148 50.0053 650.854 50.688C652.561 51.3707 654.95 52.0533 658.022 52.736C662.033 53.6747 665.66 54.784 668.902 56.064C672.145 57.344 674.918 58.88 677.222 60.672C679.526 62.3787 681.276 64.384 682.47 66.688C683.75 68.992 684.39 71.6373 684.39 74.624C684.39 78.72 683.238 82.304 680.934 85.376C678.63 88.3627 675.345 90.6667 671.078 92.288C666.897 93.9093 661.905 94.72 656.102 94.72ZM462.15 186.375C459.705 187.685 456.91 188.34 453.766 188.34C448.614 188.34 444.64 186.55 441.845 182.969C439.051 179.301 437.653 174.105 437.653 167.38C437.653 160.655 439.051 155.503 441.845 151.922C444.64 148.254 448.614 146.42 453.766 146.42C456.91 146.42 459.705 147.075 462.15 148.385C464.596 149.695 466.517 151.485 467.914 153.756C469.399 155.939 470.141 158.472 470.141 161.354V173.406C470.141 176.288 469.399 178.864 467.914 181.135C466.517 183.318 464.596 185.065 462.15 186.375ZM536.034 202.75C523.808 202.75 514.376 199.693 507.738 193.58C501.188 187.467 497.913 178.733 497.913 167.38C497.913 156.376 500.926 147.73 506.952 141.442C512.978 135.154 521.275 132.01 531.842 132.01C542.06 132.01 549.92 134.979 555.422 140.918C561.012 146.857 563.806 155.284 563.806 166.201C563.806 167.424 563.763 168.821 563.675 170.393C563.675 171.965 563.632 173.144 563.544 173.93H515.742C516.202 178.531 517.77 182.024 520.445 184.41C523.677 187.292 528.611 188.733 535.248 188.733C539.004 188.733 542.977 188.384 547.169 187.685C551.361 186.986 555.073 186.026 558.304 184.803L560.4 198.558C557.169 199.868 553.37 200.872 549.003 201.571C544.724 202.357 540.401 202.75 536.034 202.75ZM519.659 150.35C517.539 153.017 516.249 156.729 515.789 161.485H546.893C546.494 156.556 545.276 152.757 543.239 150.088C540.794 146.769 536.995 145.11 531.842 145.11C526.428 145.11 522.367 146.857 519.659 150.35ZM587.421 202.095C590.914 202.532 594.189 202.75 597.246 202.75C603.185 202.75 608.294 201.92 612.573 200.261C616.94 198.602 620.302 196.244 622.66 193.187C625.018 190.043 626.197 186.375 626.197 182.183C626.197 179.126 625.542 176.419 624.232 174.061C623.009 171.703 621.219 169.651 618.861 167.904C616.503 166.07 613.665 164.498 610.346 163.188C607.027 161.878 603.316 160.743 599.211 159.782C596.067 159.083 593.622 158.385 591.875 157.686C590.128 156.987 588.906 156.201 588.207 155.328C587.508 154.455 587.159 153.407 587.159 152.184C587.159 150.088 588.207 148.56 590.303 147.599C592.399 146.551 595.63 146.027 599.997 146.027C603.403 146.027 606.896 146.333 610.477 146.944C614.058 147.555 617.769 148.516 621.612 149.826L623.839 136.071C619.822 134.761 615.499 133.757 610.87 133.058C606.329 132.359 601.918 132.01 597.639 132.01C588.294 132.01 581.177 133.669 576.286 136.988C571.395 140.307 568.95 145.197 568.95 151.66C568.95 155.677 569.998 159.083 572.094 161.878C574.19 164.673 577.203 167.031 581.133 168.952C585.15 170.786 589.954 172.402 595.543 173.799C598.774 174.498 601.263 175.24 603.01 176.026C604.844 176.725 606.11 177.511 606.809 178.384C607.508 179.257 607.857 180.393 607.857 181.79C607.857 184.148 606.853 185.895 604.844 187.03C602.835 188.165 599.648 188.733 595.281 188.733C591.438 188.733 587.552 188.34 583.622 187.554C579.779 186.768 575.762 185.633 571.57 184.148L569.343 197.903C571.701 198.864 574.452 199.737 577.596 200.523C580.74 201.222 584.015 201.746 587.421 202.095ZM636.787 122.447V105.81H655.127V122.447H636.787ZM636.787 201.44V134.237H655.127V201.44H636.787ZM681.846 228.688C686.825 229.736 692.064 230.26 697.566 230.26C709.88 230.26 719.007 227.247 724.945 221.221C730.971 215.195 733.984 205.981 733.984 193.58V133.32H716.823L716.693 140.787H716.43C713.723 137.905 710.448 135.722 706.605 134.237C702.85 132.752 698.789 132.01 694.422 132.01C685.34 132.01 678.31 134.936 673.331 140.787C668.353 146.638 665.865 154.848 665.865 165.415C665.865 175.982 668.353 184.192 673.331 190.043C678.31 195.894 685.34 198.82 694.422 198.82C698.789 198.82 702.763 198.121 706.344 196.724C709.924 195.239 713.068 193.012 715.775 190.043H716.037V193.58C716.037 201.702 714.465 207.51 711.321 211.003C708.265 214.584 703.068 216.374 695.732 216.374C691.54 216.374 687.261 215.85 682.894 214.802C678.615 213.754 674.86 212.357 671.628 210.61L669.401 224.234C672.72 226.155 676.868 227.64 681.846 228.688ZM708.047 182.707C705.689 183.842 702.894 184.41 699.662 184.41C694.597 184.41 690.623 182.794 687.741 179.563C684.947 176.244 683.549 171.528 683.549 165.415C683.549 159.389 684.947 154.717 687.741 151.398C690.623 148.079 694.597 146.42 699.662 146.42C702.894 146.42 705.689 146.988 708.047 148.123C710.492 149.258 712.413 150.83 713.81 152.839C715.295 154.76 716.037 156.987 716.037 159.52V171.31C716.037 173.843 715.295 176.113 713.81 178.122C712.413 180.043 710.492 181.572 708.047 182.707ZM748.263 133.32H765.424L765.555 141.311H765.818C768.612 138.167 771.843 135.853 775.511 134.368C779.267 132.796 783.59 132.01 788.48 132.01C796.69 132.01 802.716 134.237 806.558 138.691C810.488 143.058 812.453 150.001 812.453 159.52V201.44H794.506V163.057C794.506 157.38 793.546 153.276 791.625 150.743C789.703 148.123 786.646 146.813 782.454 146.813C779.31 146.813 776.516 147.468 774.07 148.778C771.625 150.001 769.704 151.704 768.307 153.887C766.997 155.983 766.341 158.472 766.341 161.354V201.44H748.263V133.32ZM838.946 202.095C842.44 202.532 845.715 202.75 848.771 202.75C854.71 202.75 859.819 201.92 864.098 200.261C868.465 198.602 871.827 196.244 874.185 193.187C876.543 190.043 877.722 186.375 877.722 182.183C877.722 179.126 877.067 176.419 875.757 174.061C874.535 171.703 872.744 169.651 870.386 167.904C868.028 166.07 865.19 164.498 861.871 163.188C858.553 161.878 854.841 160.743 850.736 159.782C847.592 159.083 845.147 158.385 843.4 157.686C841.654 156.987 840.431 156.201 839.732 155.328C839.034 154.455 838.684 153.407 838.684 152.184C838.684 150.088 839.732 148.56 841.828 147.599C843.924 146.551 847.156 146.027 851.522 146.027C854.928 146.027 858.422 146.333 862.002 146.944C865.583 147.555 869.295 148.516 873.137 149.826L875.364 136.071C871.347 134.761 867.024 133.757 862.395 133.058C857.854 132.359 853.444 132.01 849.164 132.01C839.82 132.01 832.702 133.669 827.811 136.988C822.921 140.307 820.475 145.197 820.475 151.66C820.475 155.677 821.523 159.083 823.619 161.878C825.715 164.673 828.728 167.031 832.658 168.952C836.676 170.786 841.479 172.402 847.068 173.799C850.299 174.498 852.789 175.24 854.535 176.026C856.369 176.725 857.635 177.511 858.334 178.384C859.033 179.257 859.382 180.393 859.382 181.79C859.382 184.148 858.378 185.895 856.369 187.03C854.361 188.165 851.173 188.733 846.806 188.733C842.964 188.733 839.077 188.34 835.147 187.554C831.305 186.768 827.287 185.633 823.095 184.148L820.868 197.903C823.226 198.864 825.977 199.737 829.121 200.523C832.265 201.222 835.54 201.746 838.946 202.095ZM0.279297 201.44V110.19H27.2793C43.446 110.19 55.321 113.898 62.9043 121.315C70.571 128.732 74.4043 140.232 74.4043 155.815C74.4043 171.398 70.571 182.898 62.9043 190.315C55.321 197.732 43.446 201.44 27.2793 201.44H0.279297ZM28.4043 186.44C35.1543 186.44 40.571 185.44 44.6543 183.44C48.7376 181.357 51.7376 178.065 53.6543 173.565C55.571 169.065 56.5293 163.148 56.5293 155.815C56.5293 148.398 55.571 142.482 53.6543 138.065C51.7376 133.565 48.7376 130.315 44.6543 128.315C40.571 126.232 35.1543 125.19 28.4043 125.19H17.7793V186.44H28.4043ZM85.0273 110.19V126.065H102.527V110.19H85.0273ZM85.0273 137.315V201.44H102.527V137.315H85.0273ZM143.023 228.94C137.773 228.94 132.773 228.44 128.023 227.44C123.273 226.44 119.315 225.023 116.148 223.19L118.273 210.19C121.357 211.857 124.94 213.19 129.023 214.19C133.19 215.19 137.273 215.69 141.273 215.69C148.273 215.69 153.232 213.982 156.148 210.565C159.148 207.232 160.648 201.69 160.648 193.94V190.565H160.398C157.815 193.398 154.815 195.523 151.398 196.94C147.982 198.273 144.19 198.94 140.023 198.94C131.357 198.94 124.648 196.148 119.898 190.565C115.148 184.982 112.773 177.148 112.773 167.065C112.773 156.982 115.148 149.148 119.898 143.565C124.648 137.982 131.357 135.19 140.023 135.19C144.19 135.19 148.065 135.898 151.648 137.315C155.315 138.732 158.44 140.815 161.023 143.565H161.273L161.398 136.44H177.773V193.94C177.773 205.773 174.898 214.565 169.148 220.315C163.482 226.065 154.773 228.94 143.023 228.94ZM145.023 185.19C148.107 185.19 150.773 184.648 153.023 183.565C155.357 182.482 157.19 181.023 158.523 179.19C159.94 177.273 160.648 175.107 160.648 172.69V161.44C160.648 159.023 159.94 156.898 158.523 155.065C157.19 153.148 155.357 151.648 153.023 150.565C150.773 149.482 148.107 148.94 145.023 148.94C140.19 148.94 136.398 150.523 133.648 153.69C130.982 156.857 129.648 161.315 129.648 167.065C129.648 172.898 130.982 177.398 133.648 180.565C136.398 183.648 140.19 185.19 145.023 185.19ZM192.273 110.19V126.065H209.773V110.19H192.273ZM192.273 137.315V201.44H209.773V137.315H192.273ZM253.895 202.69C246.061 202.69 240.395 201.107 236.895 197.94C233.478 194.773 231.77 189.565 231.77 182.315V149.815H217.645V136.44H231.77V115.19H249.02V136.44H270.145V149.815H249.02V178.065C249.02 181.982 249.645 184.732 250.895 186.315C252.145 187.815 254.395 188.565 257.645 188.565C259.395 188.565 261.228 188.398 263.145 188.065C265.145 187.732 266.978 187.273 268.645 186.69L270.02 200.315C267.186 201.148 264.478 201.732 261.895 202.065C259.311 202.482 256.645 202.69 253.895 202.69ZM281.075 197.315C284.825 200.898 289.909 202.69 296.325 202.69C300.575 202.69 304.742 201.898 308.825 200.315C312.909 198.732 316.117 196.607 318.45 193.94H318.575L318.825 201.44H335.2V160.44C335.2 154.19 334.325 149.232 332.575 145.565C330.825 141.815 328.034 139.148 324.2 137.565C320.367 135.982 315.117 135.19 308.45 135.19C303.2 135.19 297.909 135.648 292.575 136.565C287.325 137.398 282.534 138.607 278.2 140.19L280.325 153.44C284.325 151.857 288.575 150.648 293.075 149.815C297.575 148.898 301.909 148.44 306.075 148.44C309.242 148.44 311.659 148.773 313.325 149.44C315.075 150.023 316.284 151.107 316.95 152.69C317.7 154.273 318.075 156.523 318.075 159.44H309.45C298.617 159.44 290.242 161.482 284.325 165.565C278.492 169.648 275.575 175.44 275.575 182.94C275.575 188.94 277.409 193.732 281.075 197.315ZM310.45 188.19C308.117 189.19 305.492 189.69 302.575 189.69C299.159 189.69 296.492 188.94 294.575 187.44C292.742 185.94 291.825 183.857 291.825 181.19C291.825 177.607 293.492 174.982 296.825 173.315C300.159 171.565 305.2 170.69 311.95 170.69H318.075V178.065C318.075 180.232 317.367 182.232 315.95 184.065C314.617 185.815 312.784 187.19 310.45 188.19Z" fill="black"/>
</svg>
