<svg width="365" height="201" viewBox="0 0 365 201" fill="none" xmlns="http://www.w3.org/2000/svg">
<rect width="365" height="201" rx="24" fill="#101214"/>
<path d="M39 16H325V185H39V16Z" fill="#0D0E11"/>
<path d="M39 16H325V185H39V16Z" fill="#0D0E11"/>
<path d="M68 114H296V165H68V114Z" fill="#292D38"/>
<path d="M68 114H296V165H68V114Z" fill="#292D38"/>
<rect x="145" y="36" width="151" height="6" fill="#292D38"/>
<rect x="145" y="48" width="151" height="6" fill="#292D38"/>
<rect x="145" y="60" width="151" height="6" fill="#292D38"/>
<rect x="145" y="72" width="151" height="6" fill="#292D38"/>
<rect x="68" y="36" width="35" height="30" fill="#292D38"/>
<path d="M83.68 57V52.44H79.1V49.96H83.68V45.4H86.16V49.96H90.72V52.44H86.16V57H83.68Z" fill="#414550"/>
<path d="M165.012 145.12C164.732 145.12 164.432 145.1 164.112 145.06C163.8 145.028 163.5 144.98 163.212 144.916C162.924 144.844 162.672 144.764 162.456 144.676L162.66 143.416C163.044 143.552 163.412 143.656 163.764 143.728C164.124 143.8 164.48 143.836 164.832 143.836C165.232 143.836 165.524 143.784 165.708 143.68C165.892 143.576 165.984 143.416 165.984 143.2C165.984 143.072 165.952 142.968 165.888 142.888C165.824 142.808 165.708 142.736 165.54 142.672C165.38 142.6 165.152 142.532 164.856 142.468C164.344 142.34 163.904 142.192 163.536 142.024C163.176 141.848 162.9 141.632 162.708 141.376C162.516 141.12 162.42 140.808 162.42 140.44C162.42 139.848 162.644 139.4 163.092 139.096C163.54 138.792 164.192 138.64 165.048 138.64C165.44 138.64 165.844 138.672 166.26 138.736C166.684 138.8 167.08 138.892 167.448 139.012L167.244 140.272C166.892 140.152 166.552 140.064 166.224 140.008C165.896 139.952 165.576 139.924 165.264 139.924C164.864 139.924 164.568 139.972 164.376 140.068C164.184 140.156 164.088 140.296 164.088 140.488C164.088 140.6 164.12 140.696 164.184 140.776C164.248 140.856 164.36 140.928 164.52 140.992C164.68 141.056 164.904 141.12 165.192 141.184C165.568 141.272 165.908 141.376 166.212 141.496C166.516 141.616 166.776 141.76 166.992 141.928C167.208 142.088 167.372 142.276 167.484 142.492C167.604 142.708 167.664 142.956 167.664 143.236C167.664 143.62 167.556 143.956 167.34 144.244C167.124 144.524 166.816 144.74 166.416 144.892C166.024 145.044 165.556 145.12 165.012 145.12ZM170.89 145.12C170.154 145.12 169.614 144.916 169.27 144.508C168.926 144.1 168.754 143.464 168.754 142.6V138.76H170.398V142.276C170.398 142.796 170.478 143.176 170.638 143.416C170.806 143.648 171.074 143.764 171.442 143.764C171.722 143.764 171.966 143.708 172.174 143.596C172.39 143.476 172.558 143.316 172.678 143.116C172.798 142.916 172.858 142.688 172.858 142.432V138.76H174.514V145H172.942L172.918 144.268H172.894C172.646 144.556 172.358 144.772 172.03 144.916C171.702 145.052 171.322 145.12 170.89 145.12ZM179.812 145.12C179.404 145.12 179.028 145.048 178.684 144.904C178.34 144.76 178.04 144.548 177.784 144.268H177.76L177.748 145H176.176V136.24H177.832V139.492H177.856C178.096 139.204 178.38 138.992 178.708 138.856C179.044 138.712 179.412 138.64 179.812 138.64C180.636 138.64 181.276 138.924 181.732 139.492C182.188 140.06 182.416 140.856 182.416 141.88C182.416 142.904 182.188 143.7 181.732 144.268C181.276 144.836 180.636 145.12 179.812 145.12ZM179.32 143.8C179.8 143.8 180.168 143.636 180.424 143.308C180.68 142.972 180.808 142.496 180.808 141.88C180.808 141.264 180.68 140.792 180.424 140.464C180.168 140.128 179.8 139.96 179.32 139.96C179.04 139.96 178.784 140.02 178.552 140.14C178.328 140.26 178.152 140.424 178.024 140.632C177.896 140.832 177.832 141.064 177.832 141.328V142.432C177.832 142.696 177.896 142.932 178.024 143.14C178.152 143.34 178.328 143.5 178.552 143.62C178.784 143.74 179.04 143.8 179.32 143.8ZM183.676 145V138.76H185.212L185.236 139.492H185.26C185.492 139.212 185.756 139 186.052 138.856C186.356 138.712 186.712 138.64 187.12 138.64C187.52 138.64 187.86 138.712 188.14 138.856C188.42 139 188.62 139.212 188.74 139.492H188.764C189.012 139.196 189.292 138.98 189.604 138.844C189.916 138.708 190.28 138.64 190.696 138.64C191.36 138.64 191.84 138.816 192.136 139.168C192.44 139.52 192.592 140.076 192.592 140.836V145H190.984V141.244C190.984 140.812 190.916 140.496 190.78 140.296C190.644 140.096 190.424 139.996 190.12 139.996C189.76 139.996 189.476 140.12 189.268 140.368C189.06 140.608 188.956 140.928 188.956 141.328V145H187.336V141.16C187.336 140.776 187.26 140.488 187.108 140.296C186.964 140.096 186.748 139.996 186.46 139.996C186.244 139.996 186.048 140.056 185.872 140.176C185.696 140.288 185.556 140.444 185.452 140.644C185.348 140.844 185.296 141.072 185.296 141.328V145H183.676ZM194.178 137.764V136.24H195.858V137.764H194.178ZM194.178 145V138.844H195.858V145H194.178ZM200.453 145.12C199.701 145.12 199.157 144.968 198.821 144.664C198.493 144.36 198.329 143.86 198.329 143.164V140.044H196.973V138.76H198.329V136.72H199.985V138.76H202.013V140.044H199.985V142.756C199.985 143.132 200.045 143.396 200.165 143.548C200.285 143.692 200.501 143.764 200.813 143.764C200.981 143.764 201.157 143.748 201.341 143.716C201.533 143.684 201.709 143.64 201.869 143.584L202.001 144.892C201.729 144.972 201.469 145.028 201.221 145.06C200.973 145.1 200.717 145.12 200.453 145.12Z" fill="#414550"/>
</svg>
