<svg width="365" height="201" viewBox="0 0 365 201" fill="none" xmlns="http://www.w3.org/2000/svg">
<rect width="365" height="201" rx="24" fill="#101214"/>
<path d="M39 16H325V185H39V16Z" fill="#0D0E11"/>
<path d="M39 16H325V185H39V16Z" fill="#0D0E11"/>
<rect x="145" y="44" width="151" height="6" fill="#292D38"/>
<rect x="145" y="56" width="151" height="6" fill="#292D38"/>
<rect x="145" y="68" width="151" height="6" fill="#292D38"/>
<rect x="68" y="44" width="35" height="30" fill="#292D38"/>
<path d="M83.68 65V60.44H79.1V57.96H83.68V53.4H86.16V57.96H90.72V60.44H86.16V65H83.68Z" fill="#414550"/>
<rect x="145" y="87" width="151" height="6" fill="#292D38"/>
<rect x="145" y="99" width="151" height="6" fill="#292D38"/>
<rect x="145" y="111" width="151" height="6" fill="#292D38"/>
<rect x="68" y="87" width="35" height="30" fill="#292D38"/>
<path d="M83.68 108V103.44H79.1V100.96H83.68V96.4H86.16V100.96H90.72V103.44H86.16V108H83.68Z" fill="#414550"/>
<rect x="145" y="130" width="151" height="6" fill="#292D38"/>
<rect x="145" y="142" width="151" height="6" fill="#292D38"/>
<rect x="145" y="154" width="151" height="6" fill="#292D38"/>
<rect x="68" y="130" width="35" height="30" fill="#292D38"/>
<path d="M83.68 151V146.44H79.1V143.96H83.68V139.4H86.16V143.96H90.72V146.44H86.16V151H83.68Z" fill="#414550"/>
</svg>
