<svg width="17" height="17" viewBox="0 0 17 17" fill="none" xmlns="http://www.w3.org/2000/svg">
<path d="M12.75 0.5H4.25C2.17893 0.5 0.5 2.17893 0.5 4.25V12.75C0.5 14.8211 2.17893 16.5 4.25 16.5H12.75C14.8211 16.5 16.5 14.8211 16.5 12.75V4.25C16.5 2.17893 14.8211 0.5 12.75 0.5Z" fill="white"/>
<path d="M12.75 0.5H4.25C2.17893 0.5 0.5 2.17893 0.5 4.25V12.75C0.5 14.8211 2.17893 16.5 4.25 16.5H12.75C14.8211 16.5 16.5 14.8211 16.5 12.75V4.25C16.5 2.17893 14.8211 0.5 12.75 0.5Z" fill="#0A66C2"/>
<path d="M12.0447 14.1053H13.8741C13.9404 14.1053 14.0039 14.079 14.0508 14.0321C14.0977 13.9852 14.124 13.9217 14.1241 13.8554L14.125 9.99025C14.125 7.97006 13.6897 6.41725 11.3289 6.41725C10.4314 6.38388 9.58512 6.8465 9.12844 7.619C9.1262 7.62275 9.12281 7.62567 9.11876 7.62731C9.11471 7.62895 9.11024 7.62922 9.10603 7.62808C9.10181 7.62694 9.09808 7.62445 9.09542 7.62099C9.09275 7.61754 9.09129 7.6133 9.09125 7.60894V6.85375C9.09125 6.78745 9.06491 6.72386 9.01803 6.67697C8.97114 6.63009 8.90755 6.60375 8.84125 6.60375H7.10519C7.03888 6.60375 6.9753 6.63009 6.92841 6.67697C6.88153 6.72386 6.85519 6.78745 6.85519 6.85375V13.855C6.85519 13.9213 6.88153 13.9849 6.92841 14.0318C6.9753 14.0787 7.03888 14.105 7.10519 14.105H8.93444C9.00074 14.105 9.06433 14.0787 9.11121 14.0318C9.1581 13.9849 9.18444 13.9213 9.18444 13.855V10.3942C9.18444 9.41563 9.37006 8.46794 10.5833 8.46794C11.7792 8.46794 11.7947 9.58769 11.7947 10.4576V13.8553C11.7947 13.9216 11.821 13.9852 11.8679 14.0321C11.9148 14.079 11.9784 14.1053 12.0447 14.1053ZM2.875 4.22675C2.875 4.96825 3.48544 5.57837 4.227 5.57837C4.96837 5.57831 5.57844 4.96781 5.57844 4.22644C5.57831 3.48506 4.96819 2.875 4.22675 2.875C3.48512 2.875 2.875 3.48525 2.875 4.22675ZM3.30994 14.1053H5.14162C5.20793 14.1053 5.27152 14.079 5.3184 14.0321C5.36529 13.9852 5.39162 13.9216 5.39162 13.8553V6.85375C5.39162 6.78745 5.36529 6.72386 5.3184 6.67697C5.27152 6.63009 5.20793 6.60375 5.14162 6.60375H3.30994C3.24363 6.60375 3.18004 6.63009 3.13316 6.67697C3.08628 6.72386 3.05994 6.78745 3.05994 6.85375V13.8553C3.05994 13.9216 3.08628 13.9852 3.13316 14.0321C3.18004 14.079 3.24363 14.1053 3.30994 14.1053Z" fill="white"/>
</svg>
