<svg width="32" height="32" viewBox="0 0 32 32" fill="none" xmlns="http://www.w3.org/2000/svg">
<path d="M0 16C0 24.8471 7.15294 32 16 32C24.8471 32 32 24.8471 32 16C32 7.15294 24.8471 0 16 0C7.15294 0 0 7.15294 0 16ZM30.1176 16C30.1176 23.8118 23.8118 30.1176 16 30.1176C8.18823 30.1176 1.88235 23.8118 1.88235 16C1.88235 8.18823 8.18823 1.88235 16 1.88235C23.8118 1.88235 30.1176 8.18823 30.1176 16Z" fill="white"/>
<path d="M14.3986 8.18748L22.2104 15.9993L14.3986 23.811L15.7163 25.1287L24.8457 15.9993L15.7163 6.86984L14.3986 8.18748Z" fill="white"/>
<path d="M23.5293 16.9412V15.0588H7.5293V16.9412H23.5293Z" fill="white"/>
</svg>
