<svg width="32" height="32" viewBox="0 0 32 32" fill="none" xmlns="http://www.w3.org/2000/svg">
<path d="M32 16C32 24.8471 24.8471 32 16 32C7.15294 32 0 24.8471 0 16C0 7.15294 7.15294 0 16 0C24.8471 0 32 7.15294 32 16ZM1.88235 16C1.88235 23.8118 8.18824 30.1176 16 30.1176C23.8118 30.1176 30.1176 23.8118 30.1176 16C30.1176 8.18823 23.8118 1.88235 16 1.88235C8.18824 1.88235 1.88235 8.18823 1.88235 16Z" fill="white"/>
<path d="M17.6014 8.18748L9.78959 15.9993L17.6014 23.811L16.2837 25.1287L7.1543 15.9993L16.2837 6.86984L17.6014 8.18748Z" fill="white"/>
<path d="M8.4707 16.9412V15.0588H24.4707V16.9412H8.4707Z" fill="white"/>
</svg>
