<svg width="28" height="28" viewBox="0 0 28 28" fill="none" xmlns="http://www.w3.org/2000/svg">
<path d="M13.9994 9.34C11.4195 9.34 9.33958 11.44 9.33958 14C9.33958 16.56 11.4395 18.66 13.9994 18.66C16.5593 18.66 18.6592 16.56 18.6592 14C18.6592 11.44 16.5593 9.34 13.9994 9.34ZM27.9988 14C27.9988 12.06 27.9987 10.16 27.8988 8.22C27.7988 5.98 27.2788 3.98 25.6389 2.36C23.9989 0.72 22.019 0.2 19.7791 0.0999999C17.8392 -9.68575e-08 15.9393 0 13.9994 0C12.0595 0 10.1595 -9.68575e-08 8.21963 0.0999999C5.97973 0.2 3.97982 0.72 2.35989 2.36C0.719968 4 0.199991 5.98 0.0999954 8.22C-9.68532e-08 10.16 0 12.06 0 14C0 15.94 -9.68532e-08 17.84 0.0999954 19.78C0.199991 22.02 0.719968 24.02 2.35989 25.64C3.99982 27.28 5.97973 27.8 8.21963 27.9C10.1595 28 12.0595 28 13.9994 28C15.9393 28 17.8392 28 19.7791 27.9C22.019 27.8 24.0189 27.28 25.6389 25.64C27.2788 24 27.7988 22.02 27.8988 19.78C28.0187 17.86 27.9988 15.94 27.9988 14ZM13.9994 21.18C10.0196 21.18 6.81969 17.98 6.81969 14C6.81969 10.02 10.0196 6.82 13.9994 6.82C17.9792 6.82 21.1791 10.02 21.1791 14C21.1791 17.98 17.9792 21.18 13.9994 21.18ZM21.479 8.2C20.5591 8.2 19.7991 7.46 19.7991 6.52C19.7991 5.58 20.5391 4.84 21.479 4.84C22.419 4.84 23.159 5.58 23.159 6.52C23.164 6.73907 23.124 6.95685 23.0415 7.15983C22.9589 7.36281 22.8355 7.54667 22.679 7.7C22.5257 7.85655 22.3418 7.97993 22.1388 8.0625C21.9359 8.14507 21.7181 8.18506 21.499 8.18L21.479 8.2Z" fill="white"/>
</svg>
