<svg width="27" height="28" viewBox="0 0 27 28" fill="none" xmlns="http://www.w3.org/2000/svg">
<path d="M13.5 0C20.9636 0 27 6.26 27 14C27 21.74 20.9636 28 13.5 28C6.03643 28 0 21.74 0 14C0 6.26 6.03643 0 13.5 0ZM11.0314 21.38C17.01 21.38 20.2886 16.24 20.2886 11.78V11.34C20.925 10.86 21.4843 10.26 21.9086 9.58C21.33 9.84 20.6936 10.02 20.0379 10.12C20.7129 9.7 21.2336 9.04 21.465 8.26C20.8286 8.64 20.1343 8.92 19.4014 9.08C18.8036 8.42 17.955 8.02 17.0293 8.02C15.2357 8.02 13.77 9.54 13.77 11.4C13.77 11.66 13.7893 11.92 13.8664 12.16C11.1664 12.02 8.75571 10.68 7.155 8.64C6.885 9.14 6.71143 9.72 6.71143 10.34C6.71143 11.5 7.29 12.54 8.15786 13.14C7.61786 13.14 7.11643 12.98 6.69214 12.72V12.76C6.69214 14.4 7.81071 15.76 9.29571 16.08C9.02571 16.16 8.73643 16.2 8.44714 16.2C8.235 16.2 8.04214 16.18 7.83 16.14C8.235 17.48 9.45 18.46 10.8579 18.48C9.73929 19.38 8.33143 19.92 6.80786 19.92C6.53786 19.92 6.28714 19.92 6.03643 19.88C7.46357 20.84 9.18 21.4 11.0121 21.4" fill="white"/>
</svg>
