<svg width="40" height="28" viewBox="0 0 40 28" fill="none" xmlns="http://www.w3.org/2000/svg">
<path fill-rule="evenodd" clip-rule="evenodd" d="M39.592 6.03358C39.4029 4.60582 38.8547 3.24858 37.9982 2.08754C36.9367 1.02397 35.4971 0.418468 33.9905 0.401838C28.4012 5.68845e-07 20 0 20 0C20 0 11.6029 5.68845e-07 6.00545 0.401838C4.49954 0.418993 3.0608 1.02446 1.9998 2.08754C1.13753 3.24637 0.588135 4.6056 0.404 6.03559C0.153776 8.17402 0.018916 10.3243 0 12.477V15.4908C0.018916 17.6436 0.153776 19.7938 0.404 21.9323C0.59388 23.3628 1.13928 24.725 1.98768 25.8944C3.20776 26.9713 4.77528 27.5761 6.40541 27.5982C9.60307 27.9016 20.002 28 20.002 28C20.002 28 28.4072 28 33.9966 27.5982C35.5042 27.5815 36.9446 26.9752 38.0063 25.9104C38.8586 24.7468 39.4051 23.3896 39.596 21.9624C39.8462 19.824 39.9811 17.6737 40 15.521V12.475C39.976 10.3223 39.8398 8.17227 39.592 6.03358ZM15.9741 19.2018V7.91016L26.8821 13.5741L15.9741 19.2018Z" fill="white"/>
</svg>
